<?xml version="1.0" encoding="UTF-8"?>
<!-- Generator: Adobe Illustrator 23.1.1, SVG Export Plug-In . SVG Version: 6.00 Build 0)  -->
<svg version="1.0" id="Layer_1" xmlns="http://www.w3.org/2000/svg" xmlns:xlink="http://www.w3.org/1999/xlink" x="0px" y="0px" viewBox="0 0 277.5 97.09" style="enable-background:new 0 0 277.5 97.09;" xml:space="preserve">
<style type="text/css">
	.st0{fill:#1C2B37;}
	.st1{fill:none;stroke:#1C2B37;stroke-width:0.874;stroke-miterlimit:10;}
</style>
<g>
	<path class="st0" d="M69.3,18.13c0.4-0.33,0.6-0.81,0.6-1.41c0-1.22-0.91-1.97-1.99-1.97c-1.08,0-1.99,0.75-1.99,1.97   c0,0.62,0.19,1.08,0.59,1.41c0.4,0.37,0.84,0.54,1.4,0.54C68.45,18.67,68.91,18.5,69.3,18.13"/>
	<path class="st0" d="M110.03,12.16c0.84-0.84,1.25-1.84,1.25-3V6.28c-0.19-3.1-2.8-5.89-6.29-5.89c-2.62,0-4.91,1.62-5.86,3.97   l3.29,1.8c0.06-0.17,0.14-0.33,0.21-0.5c0.15-0.22,0.72-0.94,1.67-1.19c0,0,0,0.01-0.01,0.01c0.14-0.04,0.3-0.07,0.46-0.09   c0.02,0,0.03,0,0.04-0.01c0.03,0,0.06,0,0.1,0c0.05,0,0.1,0,0.15,0c0.1,0,0.2,0.01,0.3,0.03c0.04,0.01,0.09,0.01,0.13,0.02   c1.02,0.21,1.8,1.13,1.8,2.27v2.75h-8.48v3.97h8.23C108.23,13.42,109.18,12.99,110.03,12.16"/>
	<path class="st0" d="M8.5,21.31c-1.08,0-1.99,0.75-1.99,1.97c0,0.62,0.19,1.08,0.59,1.42c0.4,0.36,0.84,0.54,1.4,0.54   c0.52,0,0.98-0.18,1.38-0.54c0.4-0.33,0.6-0.81,0.6-1.42C10.49,22.05,9.58,21.31,8.5,21.31"/>
	<path class="st0" d="M4.16,25.23c0.52,0,0.98-0.17,1.38-0.54c0.4-0.33,0.6-0.81,0.6-1.41c0-1.22-0.9-1.97-1.99-1.97   c-1.08,0-1.99,0.75-1.99,1.97c0,0.62,0.19,1.08,0.59,1.41C3.16,25.06,3.61,25.23,4.16,25.23"/>
	<path class="st0" d="M4.93,32.2c0-0.89,0.8-1.65,1.67-1.65h2.13v5.07H6.6c-0.46,0-0.83-0.18-1.19-0.48   c-0.32-0.32-0.48-0.7-0.48-1.16V32.2z M4.93,30.72c0,0.03,0,0.04,0,0.02C4.93,30.73,4.93,30.73,4.93,30.72 M37.32,35.45   L37.32,35.45L37.32,35.45 M37.32,32.2c0-0.46,0.16-0.84,0.48-1.16c0.36-0.3,0.73-0.48,1.19-0.48h2.13v5.07h-2.13   c-0.87,0-1.67-0.76-1.67-1.65V32.2z M69.91,32.58c0.08-0.7,0.78-1.4,1.65-1.4h8.33c0.87,0,1.67,0.76,1.67,1.67v2.78H69.91V32.58z    M0.95,33.98c0,1.57,0.56,2.89,1.67,3.97c1.06,1.1,2.4,1.65,3.97,1.65h9.04h0.32h6.78h0.64H30h0.48h1.99   c1.16,0,2.15-0.41,2.97-1.25c0.93,0.79,2.05,1.2,3.35,1.25l0,0h2.3h0.89h5.99h0.32h6.78h0.64h-0.41h0.64h6.62h0.48h22.53v-6.94   c-0.08-3.04-2.62-5.5-5.67-5.5h-8.33c-0.59,0-1.14,0.08-1.65,0.24v-0.83h-4.02v9.06h-2.86h-0.48h-6.62h-0.64h0.41h-0.64h-6.78   h-0.32h-1.43c-0.54,0.01-1.02-0.03-1.43-0.16v-5.18l-3.99-3.72h-2.13c-1.57,0-2.91,0.56-3.97,1.65c-1.11,1.08-1.67,2.4-1.67,3.97   v1.78c0,0.56,0.06,1.06,0.19,1.54c-0.37,0.1-0.76,0.13-1.22,0.11h-1.84H30h-6.62h-0.64h-6.78h-0.32h-2.92v-9.06H6.4   c-1.54,0.06-2.83,0.63-3.86,1.72c-1.08,1.1-1.59,2.38-1.59,3.91V33.98z"/>
	<path class="st0" d="M92.71,20.33h-3.97v15.05c0,1.16,0.41,2.14,1.26,2.97c0.81,0.84,1.81,1.25,2.97,1.25H97h0.16h14.06v-3.97   h-6.96v-5.06c0.19-0.01,0.38-0.02,0.59-0.01h6.05v-3.99h-6.39c-1.18,0-2.16,0.43-2.97,1.27c-0.81,0.78-1.22,1.78-1.22,2.97v4.04   v0.23v0.55h-3.16H97h-4.29V20.33z"/>
	<path class="st0" d="M20.13,55.74c0-0.46,0.16-0.84,0.48-1.16c0.36-0.3,0.73-0.48,1.19-0.48h2.13v5.07h-2.13   c-0.87,0-1.67-0.76-1.67-1.65V55.74z M8.37,63.15H15h0.35c1.14,0,2.11-0.4,2.92-1.21c0.93,0.76,2.05,1.16,3.33,1.21l0,0h2.3h0.8   h3.21v-9.31l-3.99-3.72h-2.13c-1.57,0-2.91,0.56-3.97,1.65c-1.11,1.08-1.67,2.4-1.67,3.97v1.78c0,0.56,0.06,1.07,0.19,1.56   c-0.35,0.08-0.73,0.11-1.14,0.1H15H8.37H7.74h-7.1v3.97h7.1H8.37z"/>
	<path class="st0" d="M37.16,63.15h2.37c0.9,0,1.72-0.25,2.4-0.76c0.68,0.51,1.49,0.76,2.43,0.76h2.14h0.32h4.67h0.64h6.46h0.64   h6.47h0.64h6.62h0.48h13.74v-3.97h-6.96V54.1c0.19-0.01,0.38-0.01,0.59,0.01h6.05v-3.99h-6.39c-1.17,0-2.16,0.43-2.97,1.27   c-0.81,0.78-1.22,1.78-1.22,2.97v3.14v0.35v1.32h-2.84h-0.48h-6.62h-0.64h-6.47h-0.64h-6.46h-0.64h-4.67h-0.32h-2   c-0.27,0.02-0.51,0-0.75-0.02V43.87h-3.97v14.9c0.01,0.14,0,0.27,0,0.4H36.5V46.84h-3.99v12.33h-2.48v3.97H36H37.16z"/>
	<path class="st0" d="M99.85,63.15c1.16,0,2.16-0.41,2.97-1.25c0.84-0.83,1.26-1.81,1.26-2.97V43.87h-3.97v14.9c0,0.14,0,0.27,0,0.4   h-3.29V46.84h-3.99v12.33h-2.48v3.97h5.97h2.63H99.85z"/>
	<path class="st0" d="M96.99,68.6v-1.56h-2.73v-1.69c0.08,0,0.15-0.01,0.24-0.01h2.37v-1.56h-2.49c-0.94,0-1.65,0.72-1.65,1.65v1.06   v0.32v0.22h0.02v1.56H96.99z"/>
	<rect x="107.26" y="43.87" class="st0" width="3.99" height="19.27"/>
	<path class="st0" d="M17.61,90.12c-1.08,0-1.99,0.75-1.99,1.97c0,0.62,0.19,1.08,0.59,1.42c0.4,0.36,0.84,0.54,1.4,0.54   c0.52,0,0.98-0.17,1.38-0.54c0.4-0.33,0.6-0.81,0.6-1.42C19.59,90.87,18.69,90.12,17.61,90.12"/>
	<path class="st0" d="M13.27,90.12c-1.08,0-1.99,0.75-1.99,1.97c0,0.62,0.19,1.08,0.59,1.42c0.4,0.36,0.84,0.54,1.4,0.54   c0.52,0,0.98-0.17,1.38-0.54c0.4-0.33,0.6-0.81,0.6-1.42C15.26,90.87,14.35,90.12,13.27,90.12"/>
	<path class="st0" d="M48.87,90.14c-1.08,0-1.99,0.75-1.99,1.97c0,0.62,0.19,1.08,0.59,1.41c0.4,0.37,0.84,0.54,1.4,0.54   c0.52,0,0.98-0.17,1.38-0.54c0.4-0.33,0.6-0.81,0.6-1.41C50.85,90.88,49.95,90.14,48.87,90.14"/>
	<path class="st0" d="M48.56,84.44c0,0.14,0,0.27,0,0.4h-4h-0.48h-6.62h-0.64H34.8h-0.32H29v-4.85c0-1.16-0.43-2.13-1.24-2.97   c-0.83-0.81-1.81-1.25-2.97-1.25h-3.51c0.01,0,0.02,0.01,0.03,0.01h-4.18v9.07H2.05v3.97h19.03v-3.97h-0.01v-5.1h3.97   c0,0.12,0.01,0.25,0,0.37v8.69h9.43h0.32h2.02h0.64h6.62h0.16h0.32h0.22h1.4h2.13c1.16,0,2.16-0.41,2.97-1.25   c0.84-0.83,1.26-1.81,1.26-2.97v-8.8h-3.97V84.44z"/>
	<path class="st0" d="M76.11,84.83h-0.79l-2.03-4.85l3.85-0.56c0.7-0.05,1.31,0.03,1.83,0.2L76.11,84.83z M100.23,84.44   c0,0.14,0,0.27,0,0.4h-4.01h-0.48h-6.62h-0.64h-3.61h-0.32h-3.59l0.65-1.13l0.05-0.52v-3.5c0-1.08-0.49-2.22-1.26-3.05   c-0.76-0.83-1.81-1.33-2.94-1.19l-8.69,1.03v3.96l1.84,4.4H65.6h-0.16h-3.02v-9.06h-3.97v16.32h-4.32v3.97h4.07   c1.16,0,2.16-0.41,2.97-1.26c0.84-0.83,1.26-1.81,1.26-2.97V88.8h3.02h0.16h8.6c0.21,0,0.41-0.03,0.6-0.08   c0.37-0.09,0.62-0.22,0.86-0.41c0.13,0.09,0.27,0.17,0.41,0.25c0.25,0.13,0.6,0.24,1.03,0.24h7.45h0.32h3.61h0.64h6.62h0.17h0.54   h2.11h1.42c1.16,0,2.16-0.41,2.97-1.25c0.84-0.83,1.26-1.81,1.26-2.97V69.53h-3.97V84.44z"/>
	<rect x="107.38" y="69.53" class="st0" width="3.99" height="19.27"/>
	<path class="st0" d="M11.96,18.66c0.52,0,0.98-0.17,1.38-0.54c0.4-0.33,0.6-0.81,0.6-1.41c0-1.22-0.91-1.97-1.99-1.97   c-1.08,0-1.99,0.75-1.99,1.97c0,0.62,0.19,1.08,0.59,1.41C10.96,18.48,11.4,18.66,11.96,18.66"/>
	<path class="st0" d="M17.68,18.12c0.4-0.33,0.6-0.81,0.6-1.41c0-1.22-0.9-1.97-1.99-1.97c-1.08,0-1.98,0.75-1.98,1.97   c0,0.62,0.19,1.08,0.59,1.41c0.4,0.37,0.84,0.54,1.4,0.54C16.82,18.66,17.28,18.48,17.68,18.12"/>
	<path class="st0" d="M19.88,9.44L19.88,9.44l-0.01-5.1h3.62V4.34h0.77c0.01,0.13,0.01,0.25,0,0.39v4.72v3.97h6.78h0.32h6.78h0.64   h6.46h0.64h12.7h0.64h6.47h0.64h6.47h0.64h6.47h0.64h6.22h0.4h0.16h0.32h3.75c1.16,0,2.16-0.41,2.97-1.25   c0.84-0.83,1.26-1.81,1.26-2.97v-8.8h-3.97v8.66c0,0.14-0.01,0.27-0.02,0.4h-3.98h-0.48h-6.62H79.9h-6.47H72.8h-6.47H65.7h-6.47   H58.6h-12.7h-0.64h-6.46h-0.64h-6.78h-0.32h-0.43h-2.41V4.6c0-1.16-0.43-2.13-1.24-2.97C26.15,0.82,25.16,0.37,24,0.37h-3.51h-0.54   h-1.57h-2.46v9.07H0.84v3.97h19.03V9.44z"/>
	<path class="st0" d="M147.55,7.6c0-0.54-0.09-1.04-0.27-1.49c-0.18-0.46-0.43-0.85-0.76-1.18c-0.32-0.33-0.71-0.58-1.17-0.76   c-0.46-0.18-0.96-0.27-1.51-0.27h-2.09v7.42h2.09c0.55,0,1.06-0.09,1.51-0.26c0.46-0.18,0.85-0.43,1.17-0.76   c0.32-0.33,0.58-0.71,0.76-1.16c0.18-0.45,0.27-0.94,0.27-1.5V7.6z M149.9,10.03c-0.32,0.75-0.77,1.4-1.35,1.95   c-0.58,0.55-1.27,0.99-2.08,1.3c-0.8,0.32-1.69,0.47-2.65,0.47h-4.8V1.44h4.8c0.96,0,1.84,0.16,2.65,0.47   c0.8,0.31,1.49,0.74,2.08,1.29c0.58,0.55,1.03,1.2,1.35,1.94c0.32,0.74,0.47,1.55,0.47,2.42V7.6   C150.38,8.47,150.22,9.28,149.9,10.03"/>
	<path class="st0" d="M162.95,10.83c-0.25,0.69-0.61,1.27-1.08,1.73c-0.47,0.46-1.04,0.81-1.71,1.04c-0.67,0.23-1.41,0.34-2.23,0.34   c-1.65,0-2.96-0.46-3.9-1.37c-0.95-0.92-1.43-2.28-1.43-4.1V1.44h2.71v6.97c0,1.01,0.23,1.77,0.7,2.28   c0.47,0.51,1.12,0.76,1.95,0.76c0.83,0,1.48-0.25,1.95-0.74c0.47-0.49,0.7-1.23,0.7-2.22V1.44h2.71v6.95   C163.33,9.33,163.2,10.14,162.95,10.83"/>
	<path class="st0" d="M173.86,10.01c0-0.41-0.16-0.74-0.47-0.98c-0.32-0.24-0.83-0.36-1.53-0.36h-3.13v2.71h3.22   c0.6,0,1.07-0.11,1.41-0.33c0.34-0.22,0.51-0.55,0.51-1.01V10.01z M173.18,5.08c0-0.41-0.15-0.72-0.46-0.94   c-0.31-0.22-0.75-0.33-1.32-0.33h-2.67v2.6h2.5c0.6,0,1.07-0.1,1.42-0.31s0.53-0.54,0.53-0.99V5.08z M176.21,11.85   c-0.22,0.42-0.53,0.77-0.93,1.06c-0.4,0.28-0.89,0.49-1.46,0.63c-0.57,0.14-1.2,0.21-1.89,0.21h-5.85V1.44h5.71   c1.26,0,2.26,0.29,2.98,0.86c0.72,0.57,1.08,1.35,1.08,2.32v0.04c0,0.35-0.04,0.66-0.13,0.93c-0.09,0.27-0.21,0.51-0.35,0.73   c-0.15,0.22-0.32,0.41-0.51,0.57c-0.19,0.16-0.4,0.3-0.62,0.42c0.71,0.27,1.27,0.64,1.68,1.1c0.41,0.46,0.61,1.1,0.61,1.93v0.03   C176.54,10.94,176.43,11.43,176.21,11.85"/>
	<path class="st0" d="M184.22,4.61l-1.64,3.99h3.27L184.22,4.61z M187.95,13.75l-1.12-2.76h-5.21l-1.12,2.76h-2.76l5.28-12.4h2.5   l5.28,12.4H187.95z"/>
	<rect x="192.81" y="1.44" class="st0" width="2.71" height="12.31"/>
	<polygon class="st0" points="144.46,29.15 144.46,38.97 141.75,38.97 141.75,29.15 138,29.15 138,26.65 148.2,26.65 148.2,29.15     "/>
	<polygon class="st0" points="157.98,38.97 157.98,34.02 152.99,34.02 152.99,38.97 150.28,38.97 150.28,26.65 152.99,26.65    152.99,31.53 157.98,31.53 157.98,26.65 160.69,26.65 160.69,38.97  "/>
	<polygon class="st0" points="163.65,38.97 163.65,26.65 172.92,26.65 172.92,29.06 166.32,29.06 166.32,31.56 172.13,31.56    172.13,33.97 166.32,33.97 166.32,36.56 173,36.56 173,38.97  "/>
	<path class="st0" d="M190.54,37.89c-0.34,0.27-0.71,0.5-1.12,0.7c-0.41,0.19-0.85,0.34-1.33,0.44c-0.48,0.1-1.02,0.15-1.62,0.15   c-0.9,0-1.74-0.16-2.52-0.49c-0.77-0.33-1.44-0.78-2.01-1.35c-0.56-0.57-1-1.24-1.32-2.01c-0.32-0.77-0.48-1.6-0.48-2.48v-0.04   c0-0.88,0.16-1.7,0.48-2.47c0.32-0.77,0.76-1.44,1.32-2.02s1.24-1.04,2.02-1.37c0.79-0.33,1.65-0.5,2.6-0.5   c0.57,0,1.1,0.05,1.57,0.14c0.47,0.09,0.91,0.22,1.29,0.39c0.39,0.17,0.74,0.36,1.07,0.6c0.33,0.23,0.63,0.49,0.91,0.77l-1.72,1.99   c-0.48-0.43-0.97-0.77-1.47-1.02c-0.5-0.25-1.06-0.37-1.68-0.37c-0.52,0-0.99,0.1-1.43,0.3c-0.44,0.2-0.82,0.47-1.13,0.83   c-0.32,0.35-0.56,0.76-0.74,1.22c-0.18,0.46-0.26,0.96-0.26,1.49v0.03c0,0.53,0.09,1.03,0.26,1.5c0.17,0.47,0.42,0.88,0.73,1.23   c0.31,0.35,0.69,0.63,1.12,0.84c0.44,0.21,0.92,0.31,1.45,0.31c0.7,0,1.3-0.13,1.78-0.39c0.49-0.26,0.97-0.61,1.45-1.05l1.72,1.74   C191.21,37.32,190.88,37.62,190.54,37.89"/>
	<path class="st0" d="M199.13,29.82l-1.64,3.99h3.27L199.13,29.82z M202.85,38.97l-1.12-2.76h-5.21l-1.12,2.76h-2.76l5.28-12.4h2.5   l5.28,12.4H202.85z"/>
	<path class="st0" d="M214.59,30.96c0-0.61-0.2-1.07-0.59-1.39c-0.39-0.32-0.93-0.47-1.61-0.47h-2.09v3.76h2.15   c0.68,0,1.21-0.18,1.58-0.54c0.38-0.36,0.56-0.8,0.56-1.33V30.96z M216.94,32.83c-0.26,0.54-0.61,0.99-1.06,1.35   c-0.45,0.36-0.98,0.64-1.58,0.82c-0.6,0.18-1.25,0.27-1.94,0.27h-2.06v3.69h-2.71V26.65h5.03c0.74,0,1.4,0.1,1.98,0.31   s1.07,0.5,1.48,0.87c0.41,0.38,0.72,0.82,0.93,1.35c0.22,0.52,0.33,1.1,0.33,1.73v0.04C217.33,31.66,217.2,32.29,216.94,32.83"/>
	<rect x="219.46" y="26.65" class="st0" width="2.71" height="12.31"/>
	<polygon class="st0" points="230.82,29.15 230.82,38.97 228.11,38.97 228.11,29.15 224.37,29.15 224.37,26.65 234.57,26.65    234.57,29.15  "/>
	<path class="st0" d="M242.08,29.82l-1.64,3.99h3.27L242.08,29.82z M245.81,38.97l-1.12-2.76h-5.21l-1.13,2.76h-2.76l5.28-12.4h2.5   l5.28,12.4H245.81z"/>
	<polygon class="st0" points="250.54,38.97 250.54,26.65 253.25,26.65 253.25,36.52 259.39,36.52 259.39,38.97  "/>
	<path class="st0" d="M147.82,57.56c0-0.48-0.08-0.94-0.25-1.37c-0.17-0.43-0.4-0.81-0.71-1.13c-0.31-0.32-0.67-0.58-1.09-0.77   c-0.42-0.19-0.88-0.28-1.37-0.28c-0.51,0-0.97,0.09-1.38,0.27s-0.77,0.44-1.06,0.76c-0.3,0.32-0.53,0.7-0.7,1.12   c-0.17,0.42-0.25,0.88-0.25,1.36v0.03c0,0.48,0.08,0.94,0.25,1.37c0.17,0.43,0.4,0.81,0.71,1.13c0.31,0.32,0.67,0.58,1.08,0.77   c0.41,0.19,0.87,0.28,1.38,0.28c0.49,0,0.95-0.09,1.37-0.27c0.42-0.18,0.78-0.44,1.07-0.76c0.3-0.32,0.53-0.7,0.69-1.12   c0.17-0.43,0.25-0.88,0.25-1.36V57.56z M149.97,59.82c-0.3,0.7-0.72,1.32-1.25,1.86c-0.53,0.53-1.17,0.95-1.9,1.26   c-0.74,0.31-1.54,0.46-2.41,0.46c-0.87,0-1.67-0.15-2.4-0.46c-0.73-0.31-1.36-0.72-1.9-1.24c-0.53-0.52-0.95-1.14-1.24-1.84   c-0.3-0.71-0.44-1.46-0.44-2.27v-0.03c0-0.81,0.15-1.56,0.45-2.27c0.3-0.7,0.72-1.32,1.25-1.86c0.53-0.53,1.17-0.95,1.9-1.26   c0.74-0.31,1.54-0.46,2.41-0.46s1.67,0.15,2.4,0.46c0.73,0.31,1.36,0.72,1.9,1.24c0.53,0.52,0.95,1.14,1.24,1.84   c0.29,0.7,0.44,1.46,0.44,2.27v0.03C150.42,58.36,150.27,59.12,149.97,59.82"/>
	<polygon class="st0" points="155.12,54.15 155.12,56.59 160.51,56.59 160.51,58.83 155.12,58.83 155.12,63.2 152.63,63.2    152.63,51.91 161.23,51.91 161.23,54.15  "/>
	<path class="st0" d="M173.05,54.81l-1.5,3.66h3L173.05,54.81z M176.47,63.2l-1.03-2.53h-4.78l-1.03,2.53h-2.53l4.84-11.38h2.29   l4.84,11.38H176.47z"/>
	<path class="st0" d="M187.72,55.76c0-0.54-0.17-0.94-0.52-1.21c-0.35-0.27-0.82-0.4-1.44-0.4h-2.47v3.24h2.52   c0.61,0,1.09-0.14,1.41-0.43c0.33-0.29,0.49-0.68,0.49-1.16V55.76z M187.67,63.21l-2.42-3.61h-1.95v3.61h-2.49v-11.3h5.17   c1.34,0,2.39,0.33,3.14,0.99c0.75,0.66,1.12,1.57,1.12,2.74v0.03c0,0.91-0.22,1.66-0.67,2.24c-0.45,0.57-1.03,1-1.75,1.27   l2.76,4.03H187.67z"/>
	<path class="st0" d="M197.47,54.81l-1.5,3.66h3L197.47,54.81z M200.89,63.2l-1.03-2.53h-4.78l-1.03,2.53h-2.53l4.84-11.38h2.29   l4.84,11.38H200.89z"/>
	<path class="st0" d="M212.36,59.77c0-0.38-0.15-0.68-0.44-0.9c-0.29-0.22-0.76-0.33-1.4-0.33h-2.87v2.49h2.95   c0.55,0,0.98-0.1,1.29-0.3c0.31-0.2,0.47-0.51,0.47-0.93V59.77z M211.73,55.25c0-0.38-0.14-0.67-0.42-0.86   c-0.28-0.2-0.68-0.3-1.21-0.3h-2.45v2.39h2.29c0.55,0,0.99-0.09,1.31-0.28c0.32-0.19,0.48-0.49,0.48-0.91V55.25z M214.52,61.46   c-0.2,0.39-0.48,0.71-0.85,0.97c-0.37,0.26-0.82,0.45-1.34,0.58s-1.1,0.19-1.73,0.19h-5.36v-11.3h5.23c1.16,0,2.07,0.26,2.73,0.79   c0.66,0.53,0.99,1.24,0.99,2.13v0.03c0,0.32-0.04,0.61-0.12,0.86c-0.08,0.25-0.19,0.47-0.32,0.67c-0.13,0.2-0.29,0.38-0.47,0.53   c-0.18,0.15-0.37,0.28-0.57,0.39c0.65,0.25,1.17,0.58,1.54,1.01c0.38,0.43,0.56,1.01,0.56,1.77v0.03   C214.82,60.62,214.72,61.07,214.52,61.46"/>
	<polygon class="st0" points="230.57,63.2 230.57,55.83 227.39,60.65 227.32,60.65 224.18,55.88 224.18,63.2 221.72,63.2    221.72,51.91 224.4,51.91 227.37,56.68 230.34,51.91 233.02,51.91 233.02,63.2  "/>
	<polygon class="st0" points="235.73,63.2 235.73,51.91 244.24,51.91 244.24,54.12 238.18,54.12 238.18,56.41 243.51,56.41    243.51,58.62 238.18,58.62 238.18,60.99 244.32,60.99 244.32,63.2  "/>
	<path class="st0" d="M254.36,57.56c0-0.49-0.08-0.95-0.25-1.37c-0.17-0.42-0.4-0.78-0.69-1.08c-0.3-0.3-0.65-0.54-1.07-0.7   c-0.42-0.17-0.88-0.25-1.39-0.25h-1.92v6.81h1.92c0.51,0,0.97-0.08,1.39-0.24c0.42-0.16,0.78-0.39,1.07-0.69   c0.3-0.3,0.53-0.66,0.69-1.07c0.17-0.41,0.25-0.87,0.25-1.37V57.56z M256.52,59.78c-0.29,0.69-0.7,1.29-1.24,1.79   c-0.53,0.51-1.17,0.91-1.9,1.19c-0.74,0.29-1.55,0.44-2.43,0.44h-4.41v-11.3h4.41c0.88,0,1.69,0.14,2.43,0.43   c0.74,0.29,1.37,0.68,1.9,1.19c0.53,0.51,0.94,1.1,1.24,1.78c0.29,0.68,0.44,1.42,0.44,2.22v0.03   C256.96,58.35,256.81,59.1,256.52,59.78"/>
	<rect x="259.28" y="51.91" class="st0" width="2.49" height="11.3"/>
	<path class="st0" d="M269.58,54.81l-1.5,3.66h3L269.58,54.81z M273,63.2l-1.03-2.53h-4.78l-1.03,2.53h-2.53l4.84-11.38h2.29   l4.84,11.38H273z"/>
	<path class="st0" d="M141.61,79.94c-0.34,0.25-0.72,0.63-1.14,1.15l-1.74-1.4c0.28-0.38,0.56-0.71,0.85-1.01   c0.29-0.29,0.59-0.54,0.92-0.74c0.33-0.2,0.69-0.35,1.09-0.46c0.4-0.1,0.85-0.15,1.36-0.15c0.6,0,1.14,0.08,1.62,0.25   c0.48,0.17,0.89,0.4,1.23,0.71c0.34,0.31,0.6,0.68,0.77,1.11c0.18,0.43,0.27,0.91,0.27,1.44c0,0.47-0.06,0.9-0.19,1.27   c-0.12,0.37-0.31,0.72-0.55,1.06c-0.24,0.33-0.55,0.66-0.93,0.99c-0.38,0.33-0.81,0.69-1.31,1.07l-1.84,1.42h4.92v2.15h-8.36v-1.96   l3.76-3.08c0.36-0.29,0.66-0.55,0.9-0.78c0.25-0.23,0.45-0.45,0.61-0.66c0.16-0.21,0.27-0.41,0.34-0.61   c0.07-0.2,0.11-0.42,0.11-0.65c0-0.48-0.14-0.85-0.42-1.1c-0.28-0.25-0.65-0.37-1.1-0.37C142.34,79.57,141.95,79.69,141.61,79.94"/>
	<path class="st0" d="M157.15,81.71c-0.12-0.44-0.29-0.82-0.5-1.15c-0.21-0.32-0.48-0.58-0.78-0.76c-0.31-0.18-0.65-0.27-1.03-0.27   c-0.38,0-0.71,0.09-1.02,0.27c-0.3,0.18-0.56,0.42-0.77,0.74c-0.21,0.32-0.38,0.7-0.49,1.14c-0.11,0.44-0.17,0.92-0.17,1.44   c0,0.52,0.06,1,0.18,1.44c0.12,0.44,0.29,0.82,0.5,1.15c0.22,0.32,0.48,0.58,0.78,0.76c0.31,0.18,0.65,0.28,1.02,0.28   s0.71-0.09,1.02-0.27c0.3-0.18,0.56-0.43,0.77-0.75c0.22-0.32,0.38-0.7,0.49-1.14c0.11-0.44,0.17-0.91,0.17-1.43   S157.27,82.15,157.15,81.71 M159.52,85.42c-0.24,0.71-0.58,1.33-1.03,1.86c-0.44,0.53-0.97,0.94-1.59,1.24   c-0.62,0.3-1.3,0.45-2.06,0.45c-0.75,0-1.44-0.15-2.06-0.44c-0.62-0.3-1.15-0.71-1.58-1.24c-0.44-0.53-0.77-1.14-1.01-1.85   c-0.24-0.7-0.36-1.47-0.36-2.3c0-0.82,0.12-1.58,0.36-2.3c0.24-0.72,0.58-1.34,1.02-1.86c0.44-0.53,0.97-0.94,1.59-1.24   c0.62-0.3,1.31-0.45,2.06-0.45s1.44,0.15,2.06,0.44c0.62,0.3,1.14,0.71,1.58,1.24s0.77,1.15,1.01,1.86s0.35,1.47,0.35,2.29   C159.88,83.94,159.76,84.71,159.52,85.42"/>
	<path class="st0" d="M165.69,79.94c-0.34,0.25-0.72,0.63-1.14,1.15l-1.74-1.4c0.28-0.38,0.56-0.71,0.85-1.01   c0.29-0.29,0.59-0.54,0.92-0.74c0.33-0.2,0.69-0.35,1.09-0.46c0.4-0.1,0.85-0.15,1.36-0.15c0.6,0,1.14,0.08,1.62,0.25   c0.48,0.17,0.89,0.4,1.23,0.71c0.34,0.31,0.6,0.68,0.77,1.11c0.18,0.43,0.27,0.91,0.27,1.44c0,0.47-0.06,0.9-0.19,1.27   c-0.12,0.37-0.31,0.72-0.55,1.06c-0.24,0.33-0.55,0.66-0.93,0.99c-0.38,0.33-0.81,0.69-1.31,1.07l-1.84,1.42h4.92v2.15h-8.36v-1.96   l3.76-3.08c0.36-0.29,0.66-0.55,0.9-0.78c0.25-0.23,0.45-0.45,0.61-0.66c0.16-0.21,0.27-0.41,0.34-0.61   c0.07-0.2,0.11-0.42,0.11-0.65c0-0.48-0.14-0.85-0.42-1.1c-0.28-0.25-0.65-0.37-1.1-0.37C166.42,79.57,166.03,79.69,165.69,79.94"/>
	<path class="st0" d="M181.24,81.71c-0.12-0.44-0.29-0.82-0.5-1.15c-0.21-0.32-0.48-0.58-0.78-0.76c-0.31-0.18-0.65-0.27-1.03-0.27   c-0.38,0-0.71,0.09-1.02,0.27c-0.3,0.18-0.56,0.42-0.77,0.74c-0.21,0.32-0.38,0.7-0.49,1.14c-0.11,0.44-0.17,0.92-0.17,1.44   c0,0.52,0.06,1,0.18,1.44c0.12,0.44,0.29,0.82,0.5,1.15c0.22,0.32,0.48,0.58,0.78,0.76c0.31,0.18,0.65,0.28,1.02,0.28   s0.71-0.09,1.02-0.27c0.3-0.18,0.56-0.43,0.77-0.75c0.22-0.32,0.38-0.7,0.49-1.14c0.11-0.44,0.17-0.91,0.17-1.43   S181.36,82.15,181.24,81.71 M183.6,85.42c-0.24,0.71-0.58,1.33-1.03,1.86c-0.44,0.53-0.97,0.94-1.59,1.24   c-0.62,0.3-1.3,0.45-2.06,0.45c-0.75,0-1.44-0.15-2.06-0.44c-0.62-0.3-1.15-0.71-1.58-1.24c-0.44-0.53-0.77-1.14-1.01-1.85   c-0.24-0.7-0.36-1.47-0.36-2.3c0-0.82,0.12-1.58,0.36-2.3c0.24-0.72,0.58-1.34,1.02-1.86c0.44-0.53,0.97-0.94,1.59-1.24   c0.62-0.3,1.31-0.45,2.06-0.45s1.44,0.15,2.06,0.44c0.62,0.3,1.14,0.71,1.58,1.24s0.77,1.15,1.01,1.86s0.35,1.47,0.35,2.29   C183.96,83.94,183.84,84.71,183.6,85.42"/>
	<line class="st1" x1="125.17" y1="0" x2="125.17" y2="89.57"/>
</g>
</svg>